<svg xmlns="http://www.w3.org/2000/svg" viewBox="0 0 128 128" width="128" height="128">
  <!-- Football -->
  <circle cx="64" cy="60" r="38" fill="#f5f5f5" stroke="#222" stroke-width="3"/>
  <!-- Pentagon patches -->
  <polygon points="64,30 75,38 71,51 57,51 53,38" fill="#1a1a2e" stroke="#222" stroke-width="1.5"/>
  <polygon points="90,47 98,58 93,70 80,68 78,55" fill="#1a1a2e" stroke="#222" stroke-width="1.5"/>
  <polygon points="82,82 72,90 59,86 58,73 71,67" fill="#1a1a2e" stroke="#222" stroke-width="1.5"/>
  <polygon points="46,83 36,75 38,62 51,57 60,66" fill="#1a1a2e" stroke="#222" stroke-width="1.5"/>
  <polygon points="38,50 42,37 55,36 60,49 50,57" fill="#1a1a2e" stroke="#222" stroke-width="1.5"/>
  <!-- Olympic rings row -->
  <circle cx="30" cy="112" r="7" fill="none" stroke="#0085C7" stroke-width="3"/>
  <circle cx="48" cy="112" r="7" fill="none" stroke="#F4C300" stroke-width="3"/>
  <circle cx="66" cy="112" r="7" fill="none" stroke="#009F3D" stroke-width="3"/>
  <circle cx="84" cy="112" r="7" fill="none" stroke="#DF0024" stroke-width="3"/>
  <circle cx="102" cy="112" r="7" fill="none" stroke="#000000" stroke-width="3"/>
</svg>
