<svg xmlns="http://www.w3.org/2000/svg" viewBox="0 0 720 720">
  <rect width="720" height="720" rx="160" fill="#0f0f1a"/>
  <path fill="#ffffff" d="M130.32 104.538L114.32 88.539H605.66L589.66 104.538H365V217.713C361.66 217.593 358.34 217.593 355 217.713V104.538H130.32ZM224.42 506.541L77.66 653.294L66.34 641.975L148.6 559.718H0V159.576H148.6L66.34 77.3195L77.66 66L224.42 212.754L213.1 224.073L164.6 175.575H48.08C44.88 191.774 32.12 204.494 15.98 207.674V511.64C32.12 514.86 44.86 527.58 48.06 543.719H164.58L213.08 495.221L224.42 506.541ZM16 197.414C26.64 194.594 35.02 186.215 37.84 175.575H16V197.414ZM37.82 543.719C34.98 533.119 26.62 524.76 16 521.9V543.719H37.82ZM720 559.718H571.4L653.66 641.975L642.34 653.294L495.58 506.541L506.9 495.221L555.4 543.719H671.92C675.14 527.58 687.88 514.86 704 511.64V207.654C687.86 204.434 675.12 191.714 671.92 175.575H555.4L506.9 224.073L495.58 212.754L642.34 66L653.66 77.3195L571.4 159.576H720V559.718ZM704 521.92C693.4 524.76 685.04 533.119 682.18 543.739H704V521.92ZM704 175.575H682.18C685.02 186.175 693.38 194.534 704 197.394V175.575ZM441.96 243.732H485V227.733H412.6C423.06 231.913 432.9 237.312 441.96 243.732ZM360 491.701C287.18 491.701 227.94 432.464 227.94 359.647C227.94 286.83 287.18 227.593 360 227.593C432.82 227.593 492.06 286.83 492.06 359.647C492.06 432.464 432.82 491.701 360 491.701ZM476.28 353.227L453.52 378.886V424.644H463.22C475.12 405.805 482.04 383.526 482.04 359.647C482.04 359.087 482 358.547 482 358.007L476.28 353.227ZM392.46 247.612L420.42 272.371L455.14 290.51V283.35C440.64 265.311 421.16 251.492 398.78 243.952L392.46 247.612ZM337.94 251.752L309.82 276.651L331.74 297.43H388.24L410.16 276.651L382.04 251.752H337.94ZM264.84 290.51L299.56 272.371L327.9 247.272L322.4 243.552C299.52 250.972 279.58 264.991 264.82 283.35V290.51H264.84ZM266.48 378.886L243.72 353.227L237.98 358.007C237.98 358.547 237.94 359.107 237.94 359.647C237.94 383.526 244.86 405.805 256.76 424.644H266.46V378.886H266.48ZM272.72 370.867L309.68 353.487L324.1 303.95L301.56 282.61L263.94 302.25L249.88 345.108L272.72 370.867ZM316.32 455.663L355 437.464V392.706L313.34 362.827L276.48 380.146V427.064L311.68 452.303L316.32 455.663ZM397.3 463.723L360 446.163L322.7 463.723L330.4 478.062C339.88 480.442 349.8 481.702 360 481.702C370.2 481.702 380.12 480.422 389.6 478.062L397.3 463.723ZM443.52 380.166L406.66 362.847L365 392.726V437.484L403.68 455.683L417.38 445.863L443.52 427.104V380.166ZM447.26 370.867L470.1 345.108L456.04 302.25L418.42 282.61L395.88 303.95L410.3 353.487L447.26 370.867ZM693.98 268.791V258.792H636.72V460.783H693.98V450.783H646.72V268.791H693.98ZM26.02 450.503V460.503H83.28V258.512H26.02V268.511H73.28V450.503H26.02ZM365 614.756V501.581C361.66 501.701 358.34 501.701 355 501.581V614.756H130.32L114.32 630.755H605.66L589.66 614.756H365ZM110.02 367.647H218.18C218.04 365.007 217.94 362.327 217.94 359.647C217.94 356.967 218.04 354.287 218.18 351.647H110.02V367.647ZM526.66 434.244H480.8C477.32 439.844 473.5 445.203 469.3 450.243H526.66V434.244ZM485 475.562H441.96C432.9 481.982 423.06 487.381 412.6 491.561H485V475.562ZM568.34 392.946H498.06C496.74 398.405 495.14 403.745 493.2 408.945H568.32V392.946H568.34ZM278.04 475.562H235V491.561H307.4C296.94 487.381 287.1 481.982 278.04 475.562ZM193.34 285.03H239.18C242.66 279.431 246.48 274.071 250.68 269.031H193.34V285.03ZM610.02 351.647H501.82C501.96 354.287 502.06 356.967 502.06 359.647C502.06 362.327 501.96 365.007 501.82 367.647H610.02V351.647ZM498.06 326.349H568.34V310.349H493.22C495.14 315.549 496.76 320.889 498.06 326.349ZM151.68 326.349H221.94C223.26 320.889 224.86 315.549 226.8 310.349H151.7V326.349H151.68ZM239.18 434.244H193.34V450.243H250.68C246.5 445.203 242.66 439.864 239.18 434.244ZM307.4 227.733H235V243.732H278.04C287.1 237.312 296.94 231.913 307.4 227.733ZM221.92 392.946H151.66V408.945H226.76C224.86 403.745 223.24 398.405 221.92 392.946ZM480.82 285.03H526.68V269.031H469.32C473.5 274.091 477.34 279.431 480.82 285.03Z"/>
</svg>
